<svg width="50" height="50" viewBox="0 0 50 50" fill="none" xmlns="http://www.w3.org/2000/svg">
<rect width="50" height="50" rx="19" fill="#3C50E0"/>
<path d="M11.5616 15.6772C11.5616 13.7519 13.2676 12.1841 15.3655 12.1841C17.4631 12.1841 19.1694 13.7504 19.1694 15.6772C19.1694 17.6041 17.4631 19.1704 15.3655 19.1704C13.2676 19.1704 11.5616 17.6041 11.5616 15.6772ZM17.6492 15.6772C17.6492 14.5244 16.6253 13.5852 15.3667 13.5852C14.1082 13.5852 13.0847 14.5241 13.0847 15.6772C13.0847 16.8319 14.1086 17.7693 15.3667 17.7693C16.6249 17.7693 17.6492 16.8304 17.6492 15.6772ZM41.2362 18.4957C41.1577 18.4957 33.3201 18.5592 30.5196 24.341C30.4169 24.5523 30.2081 24.7038 29.9608 24.7454C29.8827 24.7586 22.0583 26.1201 20.6716 31.2078C20.6316 31.3548 20.5407 31.4858 20.4128 31.5812C20.2848 31.6765 20.1266 31.7311 19.962 31.7366H19.9333C19.6074 31.7366 19.3153 31.5446 19.2126 31.2581L16.3237 23.3061C16.0073 23.3408 15.6891 23.3591 15.3704 23.3609C14.2561 23.3609 13.1952 23.1568 12.2231 22.7924C11.8439 25.8101 10.6338 37.3177 13.5001 41.5875C16.5513 41.6318 36.5928 41.6567 40.5718 34.9505C40.6195 34.8697 40.6841 34.7984 40.7619 34.7407C40.8397 34.683 40.929 34.6399 41.0249 34.614C41.1208 34.5881 41.2213 34.5798 41.3206 34.5897C41.42 34.5996 41.5162 34.6274 41.6039 34.6715C41.7806 34.7608 41.9117 34.9108 41.9685 35.0887C42.0253 35.2666 42.0033 35.458 41.9071 35.621C37.8595 42.4421 20.3729 43 14.7665 43C13.8132 43 13.2035 42.9837 13.0621 42.9792C12.9455 42.9755 12.8313 42.9473 12.7283 42.8966C12.6254 42.846 12.5365 42.7743 12.4684 42.687C8.74007 37.902 10.5023 24.084 10.778 22.0955C8.50382 20.7208 7 18.36 7 15.6803C7 11.4444 10.7554 8 15.37 8C19.9842 8 23.7401 11.4459 23.7401 15.6803C23.7401 19.1322 21.246 22.0569 17.8255 23.0226L19.997 29.002C22.3242 25.1381 27.77 23.7608 29.298 23.4433C32.6237 17.1509 40.907 17.0946 41.2423 17.0976C41.3422 17.0977 41.4411 17.1159 41.5333 17.1512C41.6256 17.1865 41.7093 17.2383 41.7797 17.3035C41.8501 17.3687 41.9058 17.446 41.9436 17.5311C41.9814 17.6161 42.0006 17.7072 42 17.7991C41.9997 17.9845 41.9194 18.1621 41.7768 18.293C41.6342 18.4239 41.4409 18.4973 41.2394 18.4972L41.2362 18.4957ZM22.2153 15.6772C22.2153 12.2136 19.1431 9.39658 15.3667 9.39658C11.5903 9.39658 8.5182 12.2151 8.5182 15.6772C8.5182 19.1409 11.5903 21.9579 15.3667 21.9579C19.1431 21.9579 22.2153 19.1394 22.2153 15.6772ZM25.9375 34.7558C33.5983 34.7558 38.5013 30.3472 38.7323 30.1359C38.803 30.0711 38.8592 29.9941 38.8976 29.9093C38.936 29.8245 38.9559 29.7336 38.9561 29.6418C38.9563 29.5499 38.9368 29.4589 38.8987 29.374C38.8607 29.2891 38.8048 29.2119 38.7343 29.1468C38.592 29.0154 38.3988 28.9414 38.1972 28.9408C37.9955 28.9402 37.8019 29.0132 37.6586 29.1438C37.5995 29.1967 31.7173 34.4561 23.1012 33.1389C23.0026 33.1238 22.9018 33.1267 22.8045 33.1475C22.7072 33.1682 22.6153 33.2065 22.5341 33.2599C22.4528 33.3134 22.3838 33.381 22.331 33.459C22.2783 33.5371 22.2427 33.6239 22.2264 33.7145C22.2097 33.8053 22.2127 33.8981 22.2352 33.9878C22.2576 34.0775 22.2992 34.1622 22.3574 34.237C22.4156 34.3119 22.4893 34.3754 22.5743 34.424C22.6592 34.4725 22.7538 34.5052 22.8526 34.52C23.8721 34.6766 24.9039 34.7555 25.9375 34.7558Z" fill="white"/>
</svg>
