<svg width="200" height="64" viewBox="0 0 200 64" fill="none" xmlns="http://www.w3.org/2000/svg">
<path d="M80.7 42L75.2 27.54H77.3L80.82 36.78C81.14 37.6 81.42 38.42 81.72 39.5C82.06 38.36 82.4 37.4 82.64 36.76L86.14 27.54H88.18L82.74 42H80.7ZM92.3769 42.24C89.4969 42.24 87.5169 40.16 87.5169 37.12C87.5169 34.06 89.4569 31.94 92.2969 31.94C95.0769 31.94 96.8969 33.86 96.8969 36.76V37.46L89.3369 37.48C89.4769 39.54 90.5569 40.68 92.4169 40.68C93.8769 40.68 94.8369 40.08 95.1569 38.96H96.9169C96.4369 41.06 94.7969 42.24 92.3769 42.24ZM92.2969 33.52C90.6569 33.52 89.6169 34.5 89.3769 36.22H95.0169C95.0169 34.6 93.9569 33.52 92.2969 33.52ZM103.217 42.24C100.337 42.24 98.3567 40.16 98.3567 37.12C98.3567 34.06 100.297 31.94 103.137 31.94C105.917 31.94 107.737 33.86 107.737 36.76V37.46L100.177 37.48C100.317 39.54 101.397 40.68 103.257 40.68C104.717 40.68 105.677 40.08 105.997 38.96H107.757C107.277 41.06 105.637 42.24 103.217 42.24ZM103.137 33.52C101.497 33.52 100.457 34.5 100.217 36.22H105.857C105.857 34.6 104.797 33.52 103.137 33.52ZM115.437 32.14V33.86H114.597C112.817 33.86 111.717 34.94 111.717 36.82V42H109.837V32.24H111.597L111.717 33.72C112.117 32.7 113.097 32.02 114.437 32.02C114.777 32.02 115.057 32.06 115.437 32.14ZM130.629 35.86H124.949V42H122.989V27.54H131.709V29.34H124.949V34.08H130.629V35.86ZM134.682 29.9C134.002 29.9 133.442 29.34 133.442 28.66C133.442 27.96 134.002 27.42 134.682 27.42C135.362 27.42 135.922 27.96 135.922 28.66C135.922 29.34 135.362 29.9 134.682 29.9ZM133.762 42V32.22H135.642V42H133.762ZM141.132 42H139.252V33.8H137.332V32.22H139.252V29.16H141.132V32.22H143.052V33.8H141.132V42ZM146.619 42H144.739V32.22H146.439L146.639 33.72C147.259 32.6 148.499 31.94 149.879 31.94C152.459 31.94 153.639 33.52 153.639 36.02V42H151.759V36.44C151.759 34.46 150.839 33.66 149.399 33.66C147.639 33.66 146.619 34.92 146.619 36.82V42ZM160.463 42.24C157.583 42.24 155.603 40.16 155.603 37.12C155.603 34.06 157.543 31.94 160.383 31.94C163.163 31.94 164.983 33.86 164.983 36.76V37.46L157.423 37.48C157.563 39.54 158.643 40.68 160.503 40.68C161.963 40.68 162.923 40.08 163.243 38.96H165.003C164.523 41.06 162.883 42.24 160.463 42.24ZM160.383 33.52C158.743 33.52 157.703 34.5 157.463 36.22H163.103C163.103 34.6 162.043 33.52 160.383 33.52ZM166.283 39.16H168.083C168.083 40.16 168.843 40.76 170.083 40.76C171.403 40.76 172.163 40.22 172.163 39.32C172.163 38.66 171.843 38.26 170.823 38L169.103 37.6C167.363 37.18 166.543 36.32 166.543 34.88C166.543 33.08 168.063 31.94 170.223 31.94C172.363 31.94 173.763 33.14 173.803 35H172.003C171.963 34.02 171.303 33.4 170.163 33.4C168.983 33.4 168.323 33.92 168.323 34.82C168.323 35.48 168.803 35.92 169.763 36.16L171.483 36.58C173.143 36.98 173.963 37.74 173.963 39.2C173.963 41.06 172.363 42.24 170.043 42.24C167.743 42.24 166.283 41.02 166.283 39.16ZM175.248 39.16H177.048C177.048 40.16 177.808 40.76 179.048 40.76C180.368 40.76 181.128 40.22 181.128 39.32C181.128 38.66 180.808 38.26 179.788 38L178.068 37.6C176.328 37.18 175.508 36.32 175.508 34.88C175.508 33.08 177.028 31.94 179.188 31.94C181.328 31.94 182.728 33.14 182.768 35H180.968C180.928 34.02 180.268 33.4 179.128 33.4C177.948 33.4 177.288 33.92 177.288 34.82C177.288 35.48 177.768 35.92 178.728 36.16L180.448 36.58C182.108 36.98 182.928 37.74 182.928 39.2C182.928 41.06 181.328 42.24 179.008 42.24C176.708 42.24 175.248 41.02 175.248 39.16Z" fill="white"/>
<rect x="15" y="9" width="50" height="50" rx="19" fill="#3C50E0"/>
<path d="M26.5616 24.6772C26.5616 22.7519 28.2676 21.1841 30.3655 21.1841C32.4631 21.1841 34.1694 22.7504 34.1694 24.6772C34.1694 26.6041 32.4631 28.1704 30.3655 28.1704C28.2676 28.1704 26.5616 26.6041 26.5616 24.6772ZM32.6492 24.6772C32.6492 23.5244 31.6253 22.5852 30.3667 22.5852C29.1082 22.5852 28.0847 23.5241 28.0847 24.6772C28.0847 25.8319 29.1086 26.7693 30.3667 26.7693C31.6249 26.7693 32.6492 25.8304 32.6492 24.6772ZM56.2362 27.4957C56.1577 27.4957 48.3201 27.5592 45.5196 33.341C45.4169 33.5523 45.2081 33.7038 44.9608 33.7454C44.8827 33.7586 37.0583 35.1201 35.6716 40.2078C35.6316 40.3548 35.5407 40.4858 35.4128 40.5812C35.2848 40.6765 35.1266 40.7311 34.962 40.7366H34.9333C34.6074 40.7366 34.3153 40.5446 34.2126 40.2581L31.3237 32.3061C31.0073 32.3408 30.6891 32.3591 30.3704 32.3609C29.2561 32.3609 28.1952 32.1568 27.2231 31.7924C26.8439 34.8101 25.6338 46.3177 28.5001 50.5875C31.5513 50.6318 51.5928 50.6567 55.5718 43.9505C55.6195 43.8697 55.6841 43.7984 55.7619 43.7407C55.8397 43.683 55.929 43.6399 56.0249 43.614C56.1208 43.5881 56.2213 43.5798 56.3206 43.5897C56.42 43.5996 56.5162 43.6274 56.6039 43.6715C56.7806 43.7608 56.9117 43.9108 56.9685 44.0887C57.0253 44.2666 57.0033 44.458 56.9071 44.621C52.8595 51.4421 35.3729 52 29.7665 52C28.8132 52 28.2035 51.9837 28.0621 51.9792C27.9455 51.9755 27.8313 51.9473 27.7283 51.8966C27.6254 51.846 27.5365 51.7743 27.4684 51.687C23.7401 46.902 25.5023 33.084 25.778 31.0955C23.5038 29.7208 22 27.36 22 24.6803C22 20.4444 25.7554 17 30.37 17C34.9842 17 38.7401 20.4459 38.7401 24.6803C38.7401 28.1322 36.246 31.0569 32.8255 32.0226L34.997 38.002C37.3242 34.1381 42.77 32.7608 44.298 32.4433C47.6237 26.1509 55.907 26.0946 56.2423 26.0976C56.3422 26.0977 56.4411 26.1159 56.5333 26.1512C56.6256 26.1865 56.7093 26.2383 56.7797 26.3035C56.8501 26.3687 56.9058 26.446 56.9436 26.5311C56.9814 26.6161 57.0006 26.7072 57 26.7991C56.9997 26.9845 56.9194 27.1621 56.7768 27.293C56.6342 27.4239 56.4409 27.4973 56.2394 27.4972L56.2362 27.4957ZM37.2153 24.6772C37.2153 21.2136 34.1431 18.3966 30.3667 18.3966C26.5903 18.3966 23.5182 21.2151 23.5182 24.6772C23.5182 28.1409 26.5903 30.9579 30.3667 30.9579C34.1431 30.9579 37.2153 28.1394 37.2153 24.6772ZM40.9375 43.7558C48.5983 43.7558 53.5013 39.3472 53.7323 39.1359C53.803 39.0711 53.8592 38.9941 53.8976 38.9093C53.936 38.8245 53.9559 38.7336 53.9561 38.6418C53.9563 38.5499 53.9368 38.4589 53.8987 38.374C53.8607 38.2891 53.8048 38.2119 53.7343 38.1468C53.592 38.0154 53.3988 37.9414 53.1972 37.9408C52.9955 37.9402 52.8019 38.0132 52.6586 38.1438C52.5995 38.1967 46.7173 43.4561 38.1012 42.1389C38.0026 42.1238 37.9018 42.1267 37.8045 42.1475C37.7072 42.1682 37.6153 42.2065 37.5341 42.2599C37.4528 42.3134 37.3838 42.381 37.331 42.459C37.2783 42.5371 37.2427 42.6239 37.2264 42.7145C37.2097 42.8053 37.2127 42.8981 37.2352 42.9878C37.2576 43.0775 37.2992 43.1622 37.3574 43.237C37.4156 43.3119 37.4893 43.3754 37.5743 43.424C37.6592 43.4725 37.7538 43.5052 37.8526 43.52C38.8721 43.6766 39.9039 43.7555 40.9375 43.7558Z" fill="white"/>
</svg>
